<svg xmlns="http://www.w3.org/2000/svg" xmlns:xlink="http://www.w3.org/1999/xlink" xml:space="preserve" width="4988" height="1236" version="1.1" style="shape-rendering: geometricPrecision; text-rendering: geometricPrecision; fill-rule: evenodd; clip-rule: evenodd;"><rect id="backgroundrect" width="100%" height="100%" x="0" y="0" fill="none" stroke="none"/>
 <defs>
  <style type="text/css">
   <![CDATA[
    .fil2 {fill:#3BB554}
    .fil0 {fill:#49BCC8}
    .fil4 {fill:#786770}
    .fil1 {fill:#A8CF45}
    .fil6 {fill:#B0AB42}
    .fil3 {fill:#E8797B}
    .fil7 {fill:#EB6E37}
    .fil5 {fill:#FDBF3C}
    .fil8 {fill:#5C5C75;fill-rule:nonzero}
   ]]>
  </style>
 </defs>
 
<g class="currentLayer" style=""><title>Layer 1</title><g id="Layer_x0020_1" class="">
  <metadata id="CorelCorpID_0Corel-Layer" transform="translate(-1640,-5228) "/>
  <g id="_158123328">
   <g id="svg_1">
    <g id="svg_2">
     <path class="fil0" d="M375,174 l0,0 c43,-43 113,-43 156,0 l243,243 l-156,156 l-243,-243 c-43,-43 -43,-113 0,-156 z" id="svg_3"/>
     <path class="fil1" d="M861,174 l0,0 c43,43 43,113 0,156 l-243,243 l-156,-156 l243,-243 c43,-43 113,-43 156,0 z" id="svg_4"/>
     <path class="fil0" d="M559,23 l2,-2 l0,0 l2,-1 l0,0 l2,-1 l0,0 l2,-1 l0,0 l2,-1 l0,0 l2,-1 l0,0 l2,-1 l0,0 l2,-1 l0,0 l2,-1 l0,0 l2,-1 l0,0 l2,-1 l0,0 l2,-1 l0,0 l2,-1 l0,0 l2,-1 l0,0 l2,-1 l0,0 l2,-1 l0,0 l2,-1 l0,0 l2,-1 l0,0 l2,-1 l0,0 l2,-1 l0,0 l2,-1 l0,0 l2,-1 l0,0 l2,0 l0,0 l2,0 l0,0 l2,0 l0,0 l2,0 l0,0 l2,0 l0,0 l2,0 l0,0 l2,0 l0,0 l2,0 l0,0 l2,0 l0,0 l2,0 l0,0 l2,0 l0,0 l2,0 l0,0 l2,0 l0,0 l2,0 l0,0 l2,0 l0,0 l2,0 l0,0 l2,0 l0,0 l2,0 l0,0 l2,0 l0,0 l2,0 l0,0 l2,1 l0,0 l2,1 l0,0 l2,1 l0,0 l2,1 l0,0 l2,1 l0,0 l2,1 l0,0 l2,1 l0,0 l2,1 l0,0 l2,1 l0,0 l2,1 l0,0 l2,1 l0,0 l2,1 l0,0 l2,1 l0,0 l2,1 l0,0 l2,1 l0,0 l2,1 l0,0 l2,1 l0,0 l2,1 l0,0 l2,1 l0,0 l2,1 l0,0 l2,1 l0,0 l2,2 l0,0 c32,33 32,85 0,118 l-59,59 l-59,-59 c-32,-32 -32,-85 0,-118 l0,0 z" id="svg_5"/>
     <polygon class="fil2" points="618,261 774,417 618,574 462,417 " id="svg_6"/>
    </g>
    <g id="svg_7">
     <path class="fil0" d="M174,375 l0,0 c-43,43 -43,113 0,156 l243,243 l156,-156 l-243,-243 c-43,-43 -113,-43 -156,0 z" id="svg_8"/>
     <path class="fil3" d="M174,861 l0,0 c43,43 113,43 156,0 l243,-243 l-156,-156 l-243,243 c-43,43 -43,113 0,156 z" id="svg_9"/>
     <path class="fil3" d="M23,559 l-2,2 l0,0 l-1,2 l0,0 l-1,2 l0,0 l-1,2 l0,0 l-1,2 l0,0 l-1,2 l0,0 l-1,2 l0,0 l-1,2 l0,0 l-1,2 l0,0 l-1,2 l0,0 l-1,2 l0,0 l-1,2 l0,0 l-1,2 l0,0 l-1,2 l0,0 l-1,2 l0,0 l-1,2 l0,0 l-1,2 l0,0 l-1,2 l0,0 l-1,2 l0,0 l-1,2 l0,0 l-1,2 l0,0 l-1,2 l0,0 l0,2 l0,0 l0,2 l0,0 l0,2 l0,0 l0,2 l0,0 l0,2 l0,0 l0,2 l0,0 l0,2 l0,0 l0,2 l0,0 l0,2 l0,0 l0,2 l0,0 l0,2 l0,0 l0,2 l0,0 l0,2 l0,0 l0,2 l0,0 l0,2 l0,0 l0,2 l0,0 l0,2 l0,0 l0,2 l0,0 l0,2 l0,0 l0,2 l0,0 l1,2 l0,0 l1,2 l0,0 l1,2 l0,0 l1,2 l0,0 l1,2 l0,0 l1,2 l0,0 l1,2 l0,0 l1,2 l0,0 l1,2 l0,0 l1,2 l0,0 l1,2 l0,0 l1,2 l0,0 l1,2 l0,0 l1,2 l0,0 l1,2 l0,0 l1,2 l0,0 l1,2 l0,0 l1,2 l0,0 l1,2 l0,0 l1,2 l0,0 l1,2 l0,0 l2,2 l0,0 c33,32 85,32 118,0 l59,-59 l-59,-59 c-32,-32 -85,-32 -118,0 l0,0 z" id="svg_10"/>
     <polygon class="fil4" points="261,618 417,775 573,618 417,462 " id="svg_11"/>
    </g>
    <g id="svg_12">
     <path class="fil5" d="M1062,861 l0,0 c43,-43 43,-113 0,-156 l-243,-243 l-156,156 l243,243 c43,43 113,43 156,0 z" id="svg_13"/>
     <path class="fil1" d="M1062,375 l0,0 c-43,-43 -113,-43 -156,0 l-243,243 l156,156 l243,-243 c43,-43 43,-113 0,-156 z" id="svg_14"/>
     <path class="fil1" d="M1213,678 l2,-2 l0,0 l1,-2 l0,0 l1,-2 l0,0 l1,-2 l0,0 l1,-2 l0,0 l1,-2 l0,0 l1,-2 l0,0 l1,-2 l0,0 l1,-2 l0,0 l1,-2 l0,0 l1,-2 l0,0 l1,-2 l0,0 l1,-2 l0,0 l1,-2 l0,0 l1,-2 l0,0 l1,-2 l0,0 l1,-2 l0,0 l1,-2 l0,0 l1,-2 l0,0 l1,-2 l0,0 l1,-2 l0,0 l1,-2 l0,0 l0,-2 l0,0 l0,-2 l0,0 l0,-2 l0,0 l0,-2 l0,0 l0,-2 l0,0 l0,-2 l0,0 l0,-2 l0,0 l0,-2 l0,0 l0,-2 l0,0 l0,-2 l0,0 l0,-2 l0,0 l0,-2 l0,0 l0,-2 l0,0 l0,-2 l0,0 l0,-2 l0,0 l0,-2 l0,0 l0,-2 l0,0 l0,-2 l0,0 l0,-2 l0,0 l0,-2 l0,0 l-1,-2 l0,0 l-1,-2 l0,0 l-1,-2 l0,0 l-1,-2 l0,0 l-1,-2 l0,0 l-1,-2 l0,0 l-1,-2 l0,0 l-1,-2 l0,0 l-1,-2 l0,0 l-1,-2 l0,0 l-1,-2 l0,0 l-1,-2 l0,0 l-1,-2 l0,0 l-1,-2 l0,0 l-1,-2 l0,0 l-1,-2 l0,0 l-1,-2 l0,0 l-1,-2 l0,0 l-1,-2 l0,0 l-1,-2 l0,0 l-1,-2 l0,0 l-2,-2 l0,0 c-33,-32 -85,-32 -118,0 l-59,59 l59,59 c32,32 85,32 118,0 l0,0 z" id="svg_15"/>
     <polygon class="fil6" points="975,618 819,462 663,618 819,775 " id="svg_16"/>
    </g>
    <g id="svg_17">
     <path class="fil5" d="M861,1063 l0,0 c-43,43 -113,43 -156,0 l-243,-243 l156,-156 l243,243 c43,43 43,113 0,156 z" id="svg_18"/>
     <path class="fil3" d="M375,1063 l0,0 c-43,-43 -43,-113 0,-156 l243,-243 l156,156 l-243,243 c-43,43 -113,43 -156,0 z" id="svg_19"/>
     <path class="fil5" d="M677,1213 l-2,2 l0,0 l-2,1 l0,0 l-2,1 l0,0 l-2,1 l0,0 l-2,1 l0,0 l-2,1 l0,0 l-2,1 l0,0 l-2,1 l0,0 l-2,1 l0,0 l-2,1 l0,0 l-2,1 l0,0 l-2,1 l0,0 l-2,1 l0,0 l-2,1 l0,0 l-2,1 l0,0 l-2,1 l0,0 l-2,1 l0,0 l-2,1 l0,0 l-2,1 l0,0 l-2,1 l0,0 l-2,1 l0,0 l-2,1 l0,0 l-2,0 l0,0 l-2,0 l0,0 l-2,0 l0,0 l-2,0 l0,0 l-2,0 l0,0 l-2,0 l0,0 l-2,0 l0,0 l-2,0 l0,0 l-2,0 l0,0 l-2,0 l0,0 l-2,0 l0,0 l-2,0 l0,0 l-2,0 l0,0 l-2,0 l0,0 l-2,0 l0,0 l-2,0 l0,0 l-2,0 l0,0 l-2,0 l0,0 l-2,0 l0,0 l-2,0 l0,0 l-2,-1 l0,0 l-2,-1 l0,0 l-2,-1 l0,0 l-2,-1 l0,0 l-2,-1 l0,0 l-2,-1 l0,0 l-2,-1 l0,0 l-2,-1 l0,0 l-2,-1 l0,0 l-2,-1 l0,0 l-2,-1 l0,0 l-2,-1 l0,0 l-2,-1 l0,0 l-2,-1 l0,0 l-2,-1 l0,0 l-2,-1 l0,0 l-2,-1 l0,0 l-2,-1 l0,0 l-2,-1 l0,0 l-2,-1 l0,0 l-2,-1 l0,0 l-2,-2 l0,0 c-32,-33 -32,-85 0,-118 l59,-59 l59,59 c32,32 32,85 0,118 l0,0 z" id="svg_20"/>
     <polygon class="fil7" points="618,976 462,820 618,663 774,820 " id="svg_21"/>
    </g>
   </g>
   <path class="fil8" d="M1851,267 l-62,215 l-65,334 l-66,-332 l-62,-217 l-130,0 l192,710 l133,0 l191,-710 l-130,0 zm692,11 l-126,0 l0,302 l-221,0 l0,-302 l-128,0 l0,699 l128,0 l0,-281 l221,0 l0,280 l126,0 l0,-698 zm470,-11 l-62,215 l-65,334 l-66,-332 l-62,-217 l-130,0 l192,710 l133,0 l191,-710 l-130,0 zm618,593 l-274,0 l0,-594 l-128,0 l0,710 l402,0 l0,-116 zm354,-596 l-49,0 l0,712 l49,0 l0,-712 zm485,0 l-49,0 l0,357 l8,254 l-2,0 l-253,-611 l-49,0 l0,711 l49,0 l0,-381 l-6,-223 l2,0 l246,604 l53,0 l0,-711 zm518,182 c0,-129 -42,-191 -187,-191 c-166,0 -200,82 -200,241 l0,252 c0,160 37,235 200,235 c147,0 183,-65 187,-193 l-42,0 c-5,102 -25,150 -145,150 c-145,0 -155,-72 -155,-195 l0,-254 c0,-115 10,-196 155,-196 c116,0 144,50 144,150 l43,0 z" id="svg_22"/>
  </g>
 </g></g></svg>